<svg width="22" height="25" viewBox="0 0 22 25" fill="none" xmlns="http://www.w3.org/2000/svg">
<path d="M21.9881 23.9474L20.3722 7.00957C20.334 6.54306 19.9141 6.19617 19.4179 6.19617H16.0841V4.78469C16.0841 2.15311 13.8065 0 10.9945 0C8.19519 0 5.90485 2.14115 5.90485 4.78469V6.19617H2.58385C2.08761 6.19617 1.68044 6.55502 1.62955 7.00957L0.000858975 24.0191C-0.0245893 24.2703 0.0644796 24.5215 0.242617 24.701C0.420755 24.8804 0.675237 24.988 0.942444 24.988H21.0338C21.5555 24.988 21.9881 24.5813 21.9881 24.0909C22.0009 24.0431 22.0009 23.9952 21.9881 23.9474ZM7.82619 4.78469C7.82619 3.13397 9.25129 1.79426 11.0072 1.79426C12.7631 1.79426 14.1883 3.13397 14.1883 4.78469V6.19617H7.82619V4.78469ZM1.99855 23.2057L3.4491 7.99043H5.91757V9.5933C5.91757 10.0837 6.35019 10.4904 6.87188 10.4904C7.39357 10.4904 7.82619 10.0837 7.82619 9.5933V7.99043H14.1755V9.5933C14.1755 10.0837 14.6081 10.4904 15.1298 10.4904C15.6515 10.4904 16.0841 10.0837 16.0841 9.5933V7.99043H18.5526L20.0032 23.2057H1.99855Z" fill="white"/>
</svg>
