<svg width="27" height="25" viewBox="0 0 27 25" fill="none" xmlns="http://www.w3.org/2000/svg">
<g clip-path="url(#clip0)">
<path d="M15.8441 12.502C15.8441 13.8252 14.7235 14.8945 13.3368 14.8945C11.9501 14.8945 10.8295 13.8252 10.8295 12.502C10.8295 11.1787 11.9501 10.1094 13.3368 10.1094C14.7235 10.1094 15.8441 11.1787 15.8441 12.502Z" fill="#E89A5E"/>
<path d="M19.2 8.26856C19.0772 7.95606 18.8879 7.67285 18.6372 7.44336C18.3967 7.2041 18.0999 7.02344 17.7724 6.90625C17.5063 6.80859 17.1072 6.69141 16.3755 6.65723C15.5824 6.62305 15.3419 6.61328 13.336 6.61328C11.3251 6.61328 11.0897 6.61816 10.2966 6.65723C9.56486 6.69141 9.16574 6.80859 8.89966 6.90625C8.57218 7.02344 8.27539 7.2041 8.0349 7.44336C7.78417 7.67285 7.59484 7.95606 7.47204 8.26856C7.3697 8.52246 7.24689 8.90332 7.21108 9.60156C7.17526 10.3584 7.16502 10.583 7.16502 12.502C7.16502 14.416 7.17526 14.6455 7.21108 15.4023C7.24689 16.1006 7.36458 16.4814 7.47204 16.7354C7.59484 17.0479 7.78417 17.3311 8.0349 17.5605C8.27539 17.7998 8.57218 17.9805 8.89966 18.0977C9.16574 18.1953 9.56486 18.3125 10.2966 18.3467C11.0897 18.3809 11.3251 18.3906 13.336 18.3906C15.347 18.3906 15.5824 18.3857 16.3755 18.3467C17.1072 18.3125 17.5063 18.2002 17.7724 18.0977C18.4274 17.8584 18.9493 17.3604 19.2 16.7354C19.3024 16.4814 19.4252 16.1006 19.461 15.4023C19.4968 14.6455 19.507 14.416 19.507 12.502C19.507 10.583 19.5019 10.3584 19.461 9.60156C19.4252 8.90332 19.3024 8.52246 19.2 8.26856ZM13.336 16.1885C11.2023 16.1885 9.47275 14.5381 9.47275 12.502C9.47275 10.4658 11.2023 8.81543 13.336 8.81543C15.4698 8.81543 17.1993 10.4658 17.1993 12.502C17.1993 14.5381 15.4698 16.1885 13.336 16.1885ZM17.3528 9.5332C16.8565 9.5332 16.4522 9.14746 16.4522 8.67383C16.4522 8.2002 16.8565 7.81445 17.3528 7.81445C17.8491 7.81445 18.2534 8.2002 18.2534 8.67383C18.2534 9.14746 17.8491 9.5332 17.3528 9.5332Z" fill="#E89A5E"/>
<path d="M13.3368 0C6.10149 0 0.237503 5.5957 0.237503 12.5C0.237503 19.4043 6.10149 25 13.3368 25C20.5721 25 26.4361 19.4043 26.4361 12.5C26.4361 5.5957 20.5721 0 13.3368 0ZM20.8126 15.459C20.7768 16.2207 20.6489 16.7432 20.4647 17.2021C20.0758 18.1641 19.2775 18.9307 18.2644 19.3018C17.7885 19.4775 17.241 19.5996 16.4377 19.6338C15.6343 19.668 15.3785 19.6777 13.3368 19.6777C11.2952 19.6777 11.0393 19.668 10.236 19.6338C9.43772 19.5996 8.89021 19.4775 8.40922 19.3018C7.90776 19.1211 7.45235 18.8379 7.07882 18.4717C6.69505 18.1152 6.39827 17.6807 6.20894 17.2021C6.02473 16.748 5.89681 16.2256 5.86099 15.459C5.82518 14.6924 5.81494 14.4482 5.81494 12.5C5.81494 10.5518 5.82518 10.3076 5.86099 9.54102C5.89681 8.7793 6.02473 8.25684 6.20894 7.79785C6.39827 7.31934 6.69505 6.88477 7.07882 6.52832C7.45235 6.16211 7.90776 5.87891 8.40922 5.69824C8.89021 5.52246 9.4326 5.40039 10.236 5.36621C11.0393 5.33203 11.2952 5.32227 13.3368 5.32227C15.3785 5.32227 15.6343 5.33203 16.4377 5.36621C17.2359 5.40039 17.7834 5.52246 18.2644 5.69824C18.7659 5.87891 19.2213 6.16211 19.5948 6.52832C19.9786 6.88477 20.2753 7.31934 20.4647 7.79785C20.6489 8.25684 20.7768 8.77441 20.8126 9.54102C20.8484 10.3076 20.8587 10.5518 20.8587 12.5C20.8587 14.4482 20.8484 14.6924 20.8126 15.459Z" fill="#E89A5E"/>
</g>
<defs>
<clipPath id="clip0">
<rect width="26.1986" height="25" fill="white" transform="translate(0.237503)"/>
</clipPath>
</defs>
</svg>
