<svg width="195" height="28" viewBox="0 0 195 28" fill="none" xmlns="http://www.w3.org/2000/svg">
<g clip-path="url(#clip0)">
<path d="M99.9469 14.5802C99.6206 14.1921 99.24 13.9148 98.7506 13.7485C98.2612 13.5822 97.7718 13.4713 97.2824 13.4713C97.0105 13.4713 96.7386 13.5267 96.4667 13.5822C96.1948 13.6376 95.9229 13.7485 95.651 13.8594C95.3791 13.9703 95.216 14.1921 95.0529 14.4138C94.8897 14.6356 94.8353 14.9128 94.8353 15.2455C94.8353 15.7445 94.9985 16.1326 95.3791 16.4099C95.7598 16.6871 96.2492 16.9089 96.793 17.1307C97.3911 17.297 97.9893 17.5188 98.6418 17.6851C99.2943 17.8515 99.9469 18.1287 100.491 18.5168C101.089 18.8495 101.524 19.3485 101.904 19.9584C102.285 20.5683 102.448 21.3445 102.448 22.3425C102.448 23.2851 102.285 24.1168 101.904 24.8376C101.578 25.5584 101.089 26.1128 100.491 26.6119C99.8925 27.0554 99.1856 27.4435 98.4243 27.6653C97.663 27.8871 96.7929 27.998 95.9229 27.998C94.8353 27.998 93.8022 27.8317 92.8777 27.499C91.9533 27.1663 91.0832 26.6119 90.2676 25.8356L92.8777 22.897C93.2584 23.396 93.7478 23.8396 94.2916 24.1168C94.8897 24.394 95.4879 24.5604 96.086 24.5604C96.4123 24.5604 96.6842 24.5049 97.0105 24.4495C97.3367 24.394 97.6086 24.2831 97.8261 24.1168C98.098 23.9505 98.2612 23.7841 98.4243 23.5624C98.5874 23.3406 98.6418 23.0633 98.6418 22.7861C98.6418 22.2871 98.4243 21.8435 98.0437 21.5663C97.663 21.2891 97.1736 21.0119 96.5754 20.7901C95.9773 20.5683 95.3791 20.3465 94.6722 20.1802C93.9653 19.9584 93.3671 19.6812 92.769 19.3485C92.1708 19.0158 91.6814 18.5168 91.3008 17.9624C90.9201 17.4079 90.7026 16.6317 90.7026 15.6891C90.7026 14.7465 90.8657 13.9703 91.2464 13.2495C91.627 12.5287 92.0621 11.9742 92.6602 11.5307C93.2584 11.0871 93.9109 10.699 94.7266 10.4772C95.4879 10.2554 96.3036 10.1445 97.1192 10.1445C98.0437 10.1445 98.9681 10.2554 99.8925 10.5327C100.763 10.8099 101.578 11.2534 102.285 11.9188L99.9469 14.5802Z" fill="#080A0F"/>
<path d="M113.269 13.7486H108.484V10.4219H121.752V13.7486H116.967V27.5546H113.269V13.7486Z" fill="#080A0F"/>
<path d="M128.387 10.4219H134.912C135.782 10.4219 136.598 10.5328 137.359 10.6991C138.12 10.8654 138.773 11.1427 139.371 11.5308C139.969 11.9189 140.404 12.4734 140.731 13.1387C141.057 13.8041 141.22 14.6357 141.22 15.6338C141.22 16.8536 140.894 17.8516 140.296 18.7387C139.697 19.5704 138.773 20.1248 137.577 20.3466L141.873 27.61H137.414L133.879 20.7347H132.03V27.61H128.332V10.4219H128.387ZM132.084 17.5189H134.26C134.586 17.5189 134.966 17.5189 135.293 17.4635C135.673 17.4635 136 17.3526 136.326 17.2417C136.652 17.1308 136.87 16.909 137.087 16.6872C137.305 16.41 137.359 16.0773 137.359 15.5783C137.359 15.1347 137.25 14.8021 137.087 14.5248C136.924 14.2476 136.707 14.0813 136.435 13.9149C136.163 13.8041 135.837 13.6932 135.51 13.6377C135.184 13.5823 134.803 13.5823 134.477 13.5823H132.03V17.5189H132.084Z" fill="#080A0F"/>
<path d="M148.452 10.4219H152.15V27.5546H148.452V10.4219Z" fill="#080A0F"/>
<path d="M160.252 10.4219H165.853C167.213 10.4219 168.464 10.5882 169.66 10.8654C170.856 11.1981 171.944 11.6417 172.814 12.3625C173.738 13.0278 174.445 13.9149 174.989 15.0239C175.533 16.1328 175.805 17.4635 175.805 19.0159C175.805 20.4021 175.533 21.6219 175.043 22.6753C174.554 23.7288 173.847 24.6159 172.977 25.3367C172.107 26.0575 171.128 26.612 169.986 26.9446C168.844 27.3328 167.648 27.4991 166.397 27.4991H160.361V10.4219H160.252ZM163.95 24.0615H165.853C166.723 24.0615 167.485 23.9506 168.246 23.7843C169.007 23.6179 169.606 23.2852 170.149 22.8971C170.693 22.509 171.128 21.9545 171.4 21.2892C171.726 20.6239 171.889 19.7922 171.889 18.8496C171.889 18.0179 171.726 17.2971 171.4 16.6872C171.074 16.0773 170.693 15.5783 170.149 15.1347C169.606 14.7466 169.007 14.414 168.3 14.2476C167.594 14.0258 166.832 13.9704 166.071 13.9704H163.896V24.0615H163.95Z" fill="#080A0F"/>
<path d="M183.2 10.4219H194.619V13.9149H186.898V17.1308H194.184V20.6239H186.898V24.1169H195.054V27.61H183.2V10.4219Z" fill="#080A0F"/>
<path d="M75.5314 9.31485H19.5219C16.9662 9.31485 14.8454 7.20792 14.8454 4.54653C14.8454 2.05149 16.8574 0 19.3044 0H82.0568L75.5314 9.31485Z" fill="#080A0F"/>
<path d="M6.471 18.6836H62.5892C65.145 18.6836 67.2658 20.7905 67.2658 23.4519C67.2658 26.0024 65.2538 27.9984 62.8068 27.9984H0L6.471 18.6836Z" fill="#080A0F"/>
</g>
<defs>
<clipPath id="clip0">
<rect width="195" height="28" fill="white"/>
</clipPath>
</defs>
</svg>
