<svg width="26" height="25" viewBox="0 0 26 25" fill="none" xmlns="http://www.w3.org/2000/svg">
<g clip-path="url(#clip0)">
<path d="M13.2531 0C6.29609 0 0.657639 5.5957 0.657639 12.5C0.657639 19.4043 6.29609 25 13.2531 25C20.2102 25 25.8486 19.4043 25.8486 12.5C25.8486 5.5957 20.2102 0 13.2531 0ZM19.0047 9.74609C19.0097 9.86816 19.0146 9.99512 19.0146 10.1172C19.0146 13.9062 16.1068 18.2812 10.7881 18.2812C9.15467 18.2812 7.63436 17.8076 6.35513 16.9922C6.58145 17.0166 6.8127 17.0312 7.04394 17.0312C8.39697 17.0312 9.64668 16.5723 10.6356 15.8008C9.37116 15.7764 8.30349 14.9463 7.93448 13.8086C8.11161 13.8428 8.29365 13.8623 8.4757 13.8623C8.74138 13.8623 8.99723 13.8281 9.23831 13.7598C7.9148 13.4961 6.92094 12.3389 6.92094 10.9473C6.92094 10.9326 6.92094 10.9229 6.92094 10.9082C7.30963 11.123 7.75736 11.2549 8.22969 11.2646C7.45231 10.752 6.94554 9.87305 6.94554 8.87695C6.94554 8.34961 7.08822 7.85645 7.33915 7.43652C8.76598 9.1748 10.8964 10.3125 13.2974 10.4346C13.2482 10.2246 13.2236 10.0049 13.2236 9.78027C13.2236 8.19824 14.5176 6.90918 16.1166 6.90918C16.9481 6.90918 17.7009 7.25586 18.2274 7.81738C18.8867 7.69043 19.5066 7.45117 20.0626 7.11914C19.8461 7.78809 19.3885 8.34961 18.7932 8.70605C19.3787 8.6377 19.9346 8.48145 20.4512 8.25195C20.0576 8.83789 19.5705 9.34082 19.0047 9.74609Z" fill="#E89A5E"/>
</g>
<defs>
<clipPath id="clip0">
<rect width="25.191" height="25" fill="white" transform="translate(0.657639)"/>
</clipPath>
</defs>
</svg>
